<svg xmlns="http://www.w3.org/2000/svg" width="274" height="202" viewBox="0 0 274 202">
  <title>Asset 14</title>
  <g id="Layer_2" data-name="Layer 2">
    <g id="Layer_1-2" data-name="Layer 1">
      <path d="M182,18c-1.21,0-2.42,0-3.63.08l-1,.05c-.95.05-1.89.11-2.83.18l-.89.08c-2.48.22-4.94.55-7.39,1l-.24,0A47,47,0,0,0,81.72,55.26L64.45,48.35A47,47,0,0,0,47.38,45H47A46.28,46.28,0,0,0,13.56,59.32,47.7,47.7,0,0,0,0,92.65v34.7a47.66,47.66,0,0,0,13.57,33.33A46.23,46.23,0,0,0,47,175h.34a47,47,0,0,0,17.1-3.35l17.37-7,2.78-1.11,3.67-1.47,19.61,11.33L136,189.71c.92.53,1.85,1,2.78,1.54A92,92,0,1,0,182,18Z" style="fill: #283843"/>
      <path d="M146.05,172.39a72,72,0,1,0,0-124.78L95.26,76.93l-5.4,3.12L78.52,86.6a27,27,0,0,0,0,46.8Z" style="fill: #ed210e"/>
      <circle cx="182" cy="110" r="43.5" style="fill: #283843"/>
      <circle cx="182" cy="110" r="23.5" style="fill: #fff"/>
      <path d="M101,47h0q0,.83.06,1.65a.86.86,0,0,0,0,.16c0,.53.08,1,.15,1.57h0L136,30.29a88.19,88.19,0,0,1,8.73-4.42,27.22,27.22,0,0,0-3.66-2.46l0,0c-.62-.35-1.26-.67-1.92-1l-.06,0c-.66-.3-1.33-.57-2-.82l-.13,0c-.61-.22-1.23-.4-1.85-.58l-.36-.09q-1-.27-2-.45l-.19,0q-.93-.15-1.86-.24l-.54-.05c-.69-.05-1.39-.09-2.1-.09h0A27,27,0,0,0,101,47Z" style="fill: #3eb8fe"/>
      <path d="M66.33,149.36a47,47,0,0,1,0-78.72L57,66.92c-.63-.25-1.28-.48-1.94-.69A27.2,27.2,0,0,0,47.22,65H47C32.13,65,20,77.74,20,92.65v34.7a28,28,0,0,0,15.88,25.13,25.8,25.8,0,0,0,4,1.51c.64.19,1.29.35,1.94.48A26.08,26.08,0,0,0,47,155h.21c.42,0,.84,0,1.25,0A26.68,26.68,0,0,0,57,153.08Z" style="fill: #f9c949"/>
    </g>
  </g>
</svg>
